<?xml version="1.0" standalone="no"?>
<!DOCTYPE svg PUBLIC "-//W3C//DTD SVG 20010904//EN"
 "http://www.w3.org/TR/2001/REC-SVG-20010904/DTD/svg10.dtd">
<svg version="1.0" xmlns="http://www.w3.org/2000/svg"
 width="400.000000pt" height="400.000000pt" viewBox="0 0 400.000000 400.000000"
 preserveAspectRatio="xMidYMid meet">
<metadata>
Created by potrace 1.14, written by Peter Selinger 2001-2017
</metadata>
<g transform="translate(0.000000,400.000000) scale(0.100000,-0.100000)"
fill="#000000" stroke="none">
<path d="M0 2000 l0 -2000 2000 0 2000 0 0 2000 0 2000 -2000 0 -2000 0 0
-2000z m3150 0 l0 -1300 -450 0 -450 0 0 1300 0 1300 450 0 450 0 0 -1300z
m-1437 981 c44 -19 77 -53 77 -79 0 -7 -45 -123 -100 -257 -55 -134 -100 -246
-100 -249 0 -3 60 -6 133 -6 126 0 135 -1 154 -22 13 -16 33 -76 58 -183 20
-88 53 -216 72 -285 56 -200 55 -298 -6 -426 -190 -401 -820 -434 -1070 -57
-88 133 -99 266 -39 478 20 72 53 202 74 290 51 215 39 205 237 205 l154 0
117 288 c66 161 126 295 138 305 26 22 46 22 101 -2z"/>
<path d="M1650 2887 c-4 -12 -51 -127 -104 -256 -53 -129 -96 -236 -96 -237 0
-10 39 -2 47 9 9 11 203 481 203 491 0 2 -9 6 -21 9 -14 4 -22 -1 -29 -16z"/>
<path d="M1066 2245 c-9 -35 -16 -67 -16 -70 0 -3 180 -5 400 -5 220 0 400 3
400 8 0 4 -4 23 -9 42 -5 19 -12 47 -15 63 l-6 27 -369 0 -369 0 -16 -65z"/>
<path d="M1020 2048 c-6 -24 -26 -99 -45 -168 -46 -170 -48 -187 -35 -261 32
-175 174 -316 369 -365 90 -22 254 -15 336 14 75 27 181 99 222 150 46 57 80
131 93 202 13 73 11 90 -35 260 -19 69 -39 144 -45 168 l-11 42 -419 0 -419 0
-11 -42z"/>
</g>
</svg>
